# xmcd
#
# Track frame offsets:
# 182
# 12272
# 21747
# 31725
# 44195
# 56127
# 70327
# 83100
# 95885
# 108912
#
# Disc length: 1643 seconds
#
#
# Revision: 0
# Processed by: cddbd v1.5.2PL0 Copyright (c) Steve Scherf et al.
# Submitted via: FreeRIP 2.951 
#
DISCID=8c06690a
DTITLE=Various Artist - Billboard Top Country Hits 1968
DYEAR=1968
DGENRE=Country
TTITLE0=Tammy Wynette  Stand By Your Man
TTITLE1=Sonny James  Heaven Says Hello
TTITLE2=Merle Haggard and The Strangers  Mama Tried
TTITLE3=Johnny Cash  Folsom Prison Blues
TTITLE4=Henson Cargill  Skip a Rope
TTITLE5=Glen Campbell  Wichita Lineman
TTITLE6=Eddy Arnold  Then You Can Tell Me Goodbye
TTITLE7=Merle Haggard and The Strangers  Sing Me Back Home
TTITLE8=Conway Twitty  Next In Line
TTITLE9=Jeannie C. Riley  Harper Valley P.T.A.
EXTD=
EXTT0=
EXTT1=
EXTT2=
EXTT3=
EXTT4=
EXTT5=
EXTT6=
EXTT7=
EXTT8=
EXTT9=
PLAYORDER=
